<svg width="20" height="20" viewBox="0 0 20 20" fill="none" xmlns="http://www.w3.org/2000/svg">
<path d="M19 0.9C19 0.4 18.5 0 18 0H2C1.5 0 1 0.4 1 0.9L0 18.9C0 19.2 0.0999999 19.4 0.3 19.6C0.5 19.9 0.7 20 1 20H19C19.3 20 19.5 19.9 19.7 19.7C19.9 19.5 20 19.2 20 19L19 0.9ZM2.1 18L2.9 2H17L17.9 18H2.1Z" fill="#282828"/>
<path d="M14 4C13.4 4 13 4.4 13 5V5.2C13 6.2 12.2 7 11.2 7H8.8C7.8 7 7 6.2 7 5.2V5C7 4.4 6.6 4 6 4C5.4 4 5 4.4 5 5V5.2C5 7.3 6.7 9 8.8 9H11.2C13.3 9 15 7.3 15 5.2V5C15 4.4 14.6 4 14 4Z" fill="#282828"/>
</svg>
