<svg width="20" height="20" viewBox="0 0 20 20" fill="none" xmlns="http://www.w3.org/2000/svg">
<path d="M10 0C4.47712 0 0 4.47712 0 10C0 15.5229 4.47712 20 10 20C15.5229 20 20 15.5229 20 10C20 4.47712 15.5229 0 10 0ZM13.0892 9.91752H11.1876V16.9305H8.30656V9.96352H6.73872V7.54344H8.25952C8.25952 6.82776 8.26592 6.19192 8.25952 5.52792C8.25952 3.62232 9.72176 3.06944 11.0363 3.06944H13.2526V5.46C13.0666 5.46112 12.3415 5.46 11.9686 5.46C11.9215 5.46 11.1379 5.41688 11.1379 6.16992C11.1426 6.47752 11.1379 7.53664 11.1379 7.53664H13.2612L13.0892 9.91752Z" fill="#28859F"/>
</svg>
