<svg width="100" height="16" viewBox="0 0 100 16" fill="none" xmlns="http://www.w3.org/2000/svg">
<path fill-rule="evenodd" clip-rule="evenodd" d="M8.70576 0.47765L10.589 4.78856C10.6079 4.83464 10.6384 4.87451 10.6773 4.90396C10.7161 4.93342 10.7618 4.95138 10.8096 4.95594L15.3101 5.49771C15.4583 5.51475 15.5986 5.57617 15.7143 5.67461C15.8299 5.77304 15.916 5.90431 15.962 6.05265C16.0081 6.20099 16.0123 6.3601 15.9741 6.51087C15.9359 6.66164 15.8569 6.79767 15.7467 6.90263L12.4101 10.1082C12.3738 10.1413 12.3468 10.1841 12.3319 10.232C12.3169 10.2798 12.3147 10.331 12.3253 10.3802L13.2235 15.0258C13.254 15.1784 13.2416 15.337 13.188 15.4825C13.1343 15.6279 13.0416 15.754 12.921 15.8456C12.8004 15.9373 12.6571 15.9904 12.5083 15.9988C12.3595 16.0072 12.2116 15.9704 12.0823 15.8929L8.13693 13.5634C8.09541 13.5382 8.04825 13.5249 8.00023 13.5249C7.95222 13.5249 7.90506 13.5382 7.86354 13.5634L3.91727 15.8929C3.78797 15.9702 3.64009 16.0068 3.4914 15.9983C3.3427 15.9898 3.1995 15.9366 3.07901 15.8451C2.95852 15.7535 2.86585 15.6275 2.81214 15.4822C2.75843 15.3368 2.74596 15.1784 2.77623 15.0258L3.67445 10.3802C3.68508 10.331 3.68282 10.2798 3.66789 10.232C3.65296 10.1841 3.62593 10.1413 3.58966 10.1082L0.253814 6.90226C0.143378 6.79737 0.0642533 6.66134 0.0259554 6.51052C-0.0123424 6.3597 -0.00818286 6.20052 0.0379339 6.05211C0.0840507 5.90371 0.170161 5.7724 0.28591 5.67398C0.401658 5.57556 0.542116 5.51422 0.690392 5.49734L5.19163 4.95557C5.23939 4.95101 5.28509 4.93305 5.32391 4.90359C5.36273 4.87413 5.39324 4.83427 5.41223 4.78819L7.2947 0.47765C7.35579 0.335357 7.45489 0.214569 7.58006 0.129827C7.70523 0.0450847 7.85114 0 8.00023 0C8.14932 0 8.29524 0.0450847 8.42041 0.129827C8.54558 0.214569 8.64468 0.335357 8.70576 0.47765Z" fill="#FFBD1E"/>
<path fill-rule="evenodd" clip-rule="evenodd" d="M29.7058 0.47765L31.589 4.78856C31.6079 4.83464 31.6384 4.87451 31.6773 4.90396C31.7161 4.93342 31.7618 4.95138 31.8096 4.95594L36.3101 5.49771C36.4583 5.51475 36.5986 5.57617 36.7143 5.67461C36.8299 5.77304 36.916 5.90431 36.962 6.05265C37.0081 6.20099 37.0123 6.3601 36.9741 6.51087C36.9359 6.66164 36.8569 6.79767 36.7467 6.90263L33.4101 10.1082C33.3738 10.1413 33.3468 10.1841 33.3319 10.232C33.3169 10.2798 33.3147 10.331 33.3253 10.3802L34.2235 15.0258C34.254 15.1784 34.2416 15.337 34.188 15.4825C34.1343 15.6279 34.0416 15.754 33.921 15.8456C33.8004 15.9373 33.6571 15.9904 33.5083 15.9988C33.3595 16.0072 33.2116 15.9704 33.0823 15.8929L29.1369 13.5634C29.0954 13.5382 29.0482 13.5249 29.0002 13.5249C28.9522 13.5249 28.9051 13.5382 28.8635 13.5634L24.9173 15.8929C24.788 15.9702 24.6401 16.0068 24.4914 15.9983C24.3427 15.9898 24.1995 15.9366 24.079 15.8451C23.9585 15.7535 23.8658 15.6275 23.8121 15.4822C23.7584 15.3368 23.746 15.1784 23.7762 15.0258L24.6744 10.3802C24.6851 10.331 24.6828 10.2798 24.6679 10.232C24.653 10.1841 24.6259 10.1413 24.5897 10.1082L21.2538 6.90226C21.1434 6.79737 21.0643 6.66134 21.026 6.51052C20.9877 6.3597 20.9918 6.20052 21.0379 6.05211C21.0841 5.90371 21.1702 5.7724 21.2859 5.67398C21.4017 5.57556 21.5421 5.51422 21.6904 5.49734L26.1916 4.95557C26.2394 4.95101 26.2851 4.93305 26.3239 4.90359C26.3627 4.87413 26.3932 4.83427 26.4122 4.78819L28.2947 0.47765C28.3558 0.335357 28.4549 0.214569 28.5801 0.129827C28.7052 0.0450847 28.8511 0 29.0002 0C29.1493 0 29.2952 0.0450847 29.4204 0.129827C29.5456 0.214569 29.6447 0.335357 29.7058 0.47765Z" fill="#FFBD1E"/>
<path fill-rule="evenodd" clip-rule="evenodd" d="M50.7058 0.47765L52.589 4.78856C52.6079 4.83464 52.6384 4.87451 52.6773 4.90396C52.7161 4.93342 52.7618 4.95138 52.8096 4.95594L57.3101 5.49771C57.4583 5.51475 57.5986 5.57617 57.7143 5.67461C57.8299 5.77304 57.916 5.90431 57.962 6.05265C58.0081 6.20099 58.0123 6.3601 57.9741 6.51087C57.9359 6.66164 57.8569 6.79767 57.7467 6.90263L54.4101 10.1082C54.3738 10.1413 54.3468 10.1841 54.3319 10.232C54.3169 10.2798 54.3147 10.331 54.3253 10.3802L55.2235 15.0258C55.254 15.1784 55.2416 15.337 55.188 15.4825C55.1343 15.6279 55.0416 15.754 54.921 15.8456C54.8004 15.9373 54.6571 15.9904 54.5083 15.9988C54.3595 16.0072 54.2116 15.9704 54.0823 15.8929L50.1369 13.5634C50.0954 13.5382 50.0482 13.5249 50.0002 13.5249C49.9522 13.5249 49.9051 13.5382 49.8635 13.5634L45.9173 15.8929C45.788 15.9702 45.6401 16.0068 45.4914 15.9983C45.3427 15.9898 45.1995 15.9366 45.079 15.8451C44.9585 15.7535 44.8658 15.6275 44.8121 15.4822C44.7584 15.3368 44.746 15.1784 44.7762 15.0258L45.6744 10.3802C45.6851 10.331 45.6828 10.2798 45.6679 10.232C45.653 10.1841 45.6259 10.1413 45.5897 10.1082L42.2538 6.90226C42.1434 6.79737 42.0643 6.66134 42.026 6.51052C41.9877 6.3597 41.9918 6.20052 42.0379 6.05211C42.0841 5.90371 42.1702 5.7724 42.2859 5.67398C42.4017 5.57556 42.5421 5.51422 42.6904 5.49734L47.1916 4.95557C47.2394 4.95101 47.2851 4.93305 47.3239 4.90359C47.3627 4.87413 47.3932 4.83427 47.4122 4.78819L49.2947 0.47765C49.3558 0.335357 49.4549 0.214569 49.5801 0.129827C49.7052 0.0450847 49.8511 0 50.0002 0C50.1493 0 50.2952 0.0450847 50.4204 0.129827C50.5456 0.214569 50.6447 0.335357 50.7058 0.47765Z" fill="#FFBD1E"/>
<path fill-rule="evenodd" clip-rule="evenodd" d="M71.7058 0.47765L73.589 4.78856C73.6079 4.83464 73.6384 4.87451 73.6773 4.90396C73.7161 4.93342 73.7618 4.95138 73.8096 4.95594L78.3101 5.49771C78.4583 5.51475 78.5986 5.57617 78.7143 5.67461C78.8299 5.77304 78.916 5.90431 78.962 6.05265C79.0081 6.20099 79.0123 6.3601 78.9741 6.51087C78.9359 6.66164 78.8569 6.79767 78.7467 6.90263L75.4101 10.1082C75.3738 10.1413 75.3468 10.1841 75.3319 10.232C75.3169 10.2798 75.3147 10.331 75.3253 10.3802L76.2235 15.0258C76.254 15.1784 76.2416 15.337 76.188 15.4825C76.1343 15.6279 76.0416 15.754 75.921 15.8456C75.8004 15.9373 75.6571 15.9904 75.5083 15.9988C75.3595 16.0072 75.2116 15.9704 75.0823 15.8929L71.1369 13.5634C71.0954 13.5382 71.0482 13.5249 71.0002 13.5249C70.9522 13.5249 70.9051 13.5382 70.8635 13.5634L66.9173 15.8929C66.788 15.9702 66.6401 16.0068 66.4914 15.9983C66.3427 15.9898 66.1995 15.9366 66.079 15.8451C65.9585 15.7535 65.8658 15.6275 65.8121 15.4822C65.7584 15.3368 65.746 15.1784 65.7762 15.0258L66.6744 10.3802C66.6851 10.331 66.6828 10.2798 66.6679 10.232C66.653 10.1841 66.6259 10.1413 66.5897 10.1082L63.2538 6.90226C63.1434 6.79737 63.0643 6.66134 63.026 6.51052C62.9877 6.3597 62.9918 6.20052 63.0379 6.05211C63.0841 5.90371 63.1702 5.7724 63.2859 5.67398C63.4017 5.57556 63.5421 5.51422 63.6904 5.49734L68.1916 4.95557C68.2394 4.95101 68.2851 4.93305 68.3239 4.90359C68.3627 4.87413 68.3932 4.83427 68.4122 4.78819L70.2947 0.47765C70.3558 0.335357 70.4549 0.214569 70.5801 0.129827C70.7052 0.0450847 70.8511 0 71.0002 0C71.1493 0 71.2952 0.0450847 71.4204 0.129827C71.5456 0.214569 71.6447 0.335357 71.7058 0.47765Z" fill="#FFBD1E"/>
<path d="M92 0.5C92.0237 0.5 92.0479 0.503551 92.0713 0.510742L92.1396 0.543945C92.1616 0.558817 92.1822 0.577644 92.2002 0.599609L92.2461 0.674805L92.248 0.677734L94.127 4.97852V4.97949C94.1791 5.10572 94.2638 5.21833 94.375 5.30273C94.4865 5.38728 94.6201 5.44053 94.7617 5.4541V5.45312L99.25 5.99414H99.2529C99.2769 5.9969 99.301 6.00349 99.3242 6.01367L99.3906 6.05566C99.4114 6.07344 99.4303 6.09476 99.4463 6.11914L99.4844 6.20117C99.4937 6.23123 99.4992 6.26247 99.5 6.29395L99.4893 6.3877C99.4815 6.41836 99.4699 6.4471 99.4551 6.47266L99.4023 6.54004L99.4004 6.54199L96.0635 9.74805C95.9907 9.81678 95.9328 9.89822 95.8916 9.9873L95.8545 10.083C95.815 10.2096 95.809 10.344 95.835 10.4736L95.834 10.4746L96.7324 15.1211L96.7334 15.124C96.7396 15.155 96.7417 15.1867 96.7393 15.2178L96.7188 15.3096C96.6972 15.3678 96.661 15.4147 96.6182 15.4473C96.5757 15.4795 96.528 15.4973 96.4805 15.5L96.4082 15.4932L96.3398 15.4639L96.3369 15.4619L92.3916 13.1328H92.3906C92.3029 13.0806 92.2058 13.0462 92.1045 13.0322L92 13.0254C91.8946 13.0254 91.7913 13.0466 91.6963 13.0879L91.6094 13.1328L87.6631 15.4619L87.6611 15.4639C87.6167 15.4905 87.5671 15.5017 87.5195 15.499L87.4492 15.4844L87.3818 15.4473C87.3604 15.431 87.3403 15.4108 87.3232 15.3877L87.2812 15.3086C87.2705 15.2795 87.2632 15.2489 87.2607 15.2178L87.2666 15.123L87.2676 15.1211L88.165 10.4746L88.1641 10.4736C88.1833 10.3774 88.1857 10.2789 88.1689 10.1826L88.1455 10.083L88.1084 9.9873C88.0671 9.89802 88.0085 9.81688 87.9355 9.74805H87.9365L84.6006 6.54199L84.5977 6.54004L84.5449 6.47266L84.5107 6.3877C84.503 6.35708 84.4992 6.32531 84.5 6.29395L84.5156 6.2002C84.525 6.17022 84.5377 6.14255 84.5537 6.11816L84.6094 6.05469C84.6301 6.03711 84.6528 6.02375 84.6758 6.01367L84.7471 5.99414H84.75L89.251 5.45215L89.25 5.45117C89.3522 5.4399 89.45 5.40882 89.5381 5.35938L89.626 5.30176C89.7374 5.21724 89.8229 5.10493 89.875 4.97852L89.874 4.97754L91.7529 0.677734L91.7539 0.674805C91.766 0.646584 91.7819 0.621513 91.7998 0.599609L91.8604 0.543945C91.9039 0.514443 91.9524 0.500047 92 0.5Z" stroke="#FFBD1E"/>
</svg>
