<svg width="20" height="20" viewBox="0 0 20 20" fill="none" xmlns="http://www.w3.org/2000/svg">
<path d="M11.68 13.8885C11.2265 14.086 10.8254 14.3812 10.5073 14.7517C10.1891 15.1221 9.96227 15.5581 9.84401 16.0265H0.799999C0.587826 16.0265 0.384343 16.1082 0.234315 16.2538C0.0842857 16.3993 1.39113e-07 16.5967 1.4811e-07 16.8025C1.57106e-07 17.0083 0.0842857 17.2057 0.234315 17.3512C0.384344 17.4968 0.587826 17.5785 0.799999 17.5785H9.84001C9.88898 17.7643 9.95319 17.9459 10.032 18.1217C10.3143 18.7263 10.7835 19.2308 11.3747 19.565C11.9658 19.8992 12.6495 20.0467 13.331 19.987C14.0124 19.9273 14.6579 19.6634 15.1777 19.2318C15.6975 18.8002 16.066 18.2224 16.232 17.5785H19.2C19.4122 17.5785 19.6157 17.4968 19.7657 17.3512C19.9157 17.2057 20 17.0083 20 16.8025C20 16.5967 19.9157 16.3993 19.7657 16.2538C19.6157 16.1082 19.4122 16.0265 19.2 16.0265H16.236C16.1094 15.5239 15.8581 15.059 15.504 14.6721C15.1498 14.2853 14.7035 13.9883 14.204 13.8071C13.7988 13.6576 13.3669 13.5878 12.9336 13.6018C12.5002 13.6157 12.0741 13.7132 11.68 13.8885ZM13.64 15.2582C13.9016 15.3538 14.1349 15.5105 14.3192 15.7145C14.5034 15.9184 14.633 16.1633 14.6964 16.4274C14.7598 16.6915 14.7551 16.9667 14.6826 17.2287C14.6102 17.4906 14.4723 17.7311 14.2811 17.929C14.0899 18.1269 13.8514 18.276 13.5866 18.3631C13.3219 18.4502 13.0391 18.4726 12.7633 18.4283C12.4874 18.3841 12.2271 18.2745 12.0054 18.1094C11.7836 17.9442 11.6073 17.7286 11.492 17.4815C11.3914 17.2698 11.3396 17.0394 11.34 16.8064C11.34 16.4888 11.4343 16.1779 11.6116 15.9109C11.7889 15.6439 12.0418 15.4321 12.34 15.3009C12.5424 15.2093 12.7616 15.1576 12.9848 15.149C13.208 15.1403 13.4307 15.1748 13.64 15.2505V15.2582Z" fill="#282828"/>
<path d="M11.68 0.288549C11.2265 0.485991 10.8254 0.781186 10.5072 1.15166C10.1891 1.52214 9.96225 1.95814 9.84399 2.42648H0.799999C0.587826 2.42648 0.384344 2.50824 0.234315 2.65377C0.0842857 2.7993 1.4811e-07 2.99668 1.4811e-07 3.20249C1.4811e-07 3.40831 0.0842857 3.60569 0.234315 3.75122C0.384344 3.89675 0.587826 3.97851 0.799999 3.97851L9.83999 3.97851C9.88896 4.16426 9.95317 4.34591 10.032 4.52172C10.3143 5.12634 10.7835 5.63076 11.3746 5.965C11.9658 6.29924 12.6495 6.44674 13.331 6.38703C14.0124 6.32733 14.6578 6.06338 15.1777 5.6318C15.6975 5.20022 16.066 4.6224 16.232 3.97851L19.2 3.97851C19.4121 3.97851 19.6156 3.89675 19.7657 3.75122C19.9157 3.60569 20 3.40831 20 3.20249C20 2.99668 19.9157 2.7993 19.7657 2.65377C19.6156 2.50823 19.4121 2.42648 19.2 2.42648H16.236C16.1094 1.92391 15.8581 1.45897 15.5039 1.07215C15.1498 0.685328 14.7035 0.388347 14.204 0.207067C13.7987 0.0575583 13.3669 -0.0122349 12.9335 0.00175418C12.5002 0.0157433 12.0741 0.113235 11.68 0.288549ZM13.64 1.65822C13.9016 1.75382 14.1349 1.91054 14.3191 2.11448C14.5034 2.31843 14.633 2.5633 14.6964 2.82742C14.7598 3.09154 14.755 3.36675 14.6826 3.62867C14.6102 3.89059 14.4722 4.13114 14.2811 4.32901C14.0899 4.52689 13.8514 4.67597 13.5866 4.76306C13.3219 4.85015 13.0391 4.87257 12.7632 4.82831C12.4874 4.78406 12.2271 4.6745 12.0054 4.50935C11.7836 4.3442 11.6073 4.12855 11.492 3.88151C11.3918 3.66971 11.3399 3.43941 11.34 3.20637C11.3399 2.88876 11.4342 2.57787 11.6116 2.31088C11.7889 2.04389 12.0418 1.83212 12.34 1.7009C12.5429 1.61053 12.7624 1.56022 12.9856 1.55289C13.2087 1.54556 13.4312 1.58137 13.64 1.65822Z" fill="#282828"/>
<path d="M4 8.61477C3.956 8.73816 3.92 8.86155 3.888 8.98905H0.799999C0.587826 8.98905 0.384343 9.07572 0.234314 9.22998C0.0842855 9.38425 -9.53626e-09 9.59348 0 9.81164C9.53626e-09 10.0298 0.0842855 10.239 0.234314 10.3933C0.384343 10.5476 0.587826 10.6342 0.799999 10.6342H3.9C4.01817 11.1156 4.23751 11.5644 4.54257 11.9492C4.84763 12.334 5.231 12.6454 5.6657 12.8615C6.1004 13.0775 6.57587 13.1929 7.05864 13.1997C7.54141 13.2064 8.01974 13.1043 8.45999 12.9005C8.85527 12.7181 9.21149 12.457 9.50808 12.1323C9.80467 11.8075 10.0358 11.4256 10.188 11.0085C10.232 10.8851 10.268 10.7576 10.3 10.6342L19.2 10.6342C19.4121 10.6342 19.6156 10.5476 19.7657 10.3933C19.9157 10.239 20 10.0298 20 9.81164C20 9.59348 19.9157 9.38425 19.7657 9.22998C19.6156 9.07572 19.4121 8.98905 19.2 8.98905L10.296 8.98905C10.2501 8.79123 10.1858 8.5984 10.104 8.41324C9.8378 7.79709 9.39894 7.27658 8.84353 6.91826C8.28811 6.55995 7.64138 6.38011 6.98603 6.40175C6.33068 6.42338 5.6965 6.64551 5.16458 7.03973C4.63267 7.43395 4.22719 7.98234 4 8.61477ZM7.69999 8.16235C8.01468 8.28435 8.28711 8.49959 8.48281 8.78083C8.6785 9.06207 8.78868 9.39668 8.79938 9.74232C8.81009 10.088 8.72085 10.4291 8.54295 10.7226C8.36505 11.016 8.1065 11.2487 7.79999 11.391C7.54116 11.5113 7.25716 11.5629 6.97391 11.5413C6.69067 11.5196 6.41722 11.4253 6.17854 11.267C5.93986 11.1087 5.74355 10.8915 5.60755 10.6351C5.47155 10.3787 5.40019 10.0913 5.39999 9.7993C5.40015 9.5887 5.43672 9.3798 5.50799 9.18236C5.58787 8.96954 5.70777 8.77499 5.86082 8.60985C6.01388 8.44471 6.1971 8.31221 6.39999 8.21993C6.60214 8.12215 6.82118 8.0667 7.04436 8.05682C7.26755 8.04693 7.49042 8.08281 7.69999 8.16235Z" fill="#282828"/>
</svg>
