<svg width="206" height="27" viewBox="0 0 206 27" fill="none" xmlns="http://www.w3.org/2000/svg">
<path d="M33.4972 0.00024487V27H25.2671L5.72737 7.98942V27H0V0.00024487H5.72737V0.0483535L27.7698 21.417V0.00024487H33.4972Z" fill="#000D45"/>
<path d="M61.5522 0.00024487C63.8304 0.00024487 65.7631 0.802404 67.3514 2.40672C68.9397 4.01104 69.7338 5.93608 69.7338 8.1822C69.7338 10.4283 68.9397 12.3534 67.3514 13.9573C65.7631 15.5616 63.8301 16.3638 61.5522 16.3638H41.964V27H36.2366V0.00024487H61.5522ZM61.5522 10.6364C62.2257 10.6364 62.8034 10.3955 63.2848 9.91446C63.7663 9.43337 64.0068 8.85572 64.0068 8.18185C64.0068 7.50798 63.7659 6.93068 63.2848 6.44924C62.8034 5.96781 62.2261 5.72726 61.5522 5.72726H41.964V10.6361L61.5522 10.6364Z" fill="#000D45"/>
<path d="M83.8074 0.000348613L86.8448 5.72772H75.8611L78.8985 0.000348613H83.8074ZM74.9083 7.52342H204.909V8.84049H74.21L74.9083 7.52342ZM89.4483 10.6365L98.1012 26.9516H91.6522L87.5131 19.2511H75.1924L71.1018 26.9516H64.6047L73.2576 10.6365H89.4483ZM205.411 18.8181C205.411 18.9144 205.411 19.0587 205.411 19.2511C205.379 19.8929 205.251 20.5508 205.026 21.2243C205.026 21.2243 205.026 21.2403 205.026 21.2724C204.513 22.9409 203.534 24.3126 202.09 25.3871C200.647 26.4618 199.027 26.9994 197.23 26.9994H180.144C180.048 26.9994 179.904 26.9834 179.711 26.9513C177.979 26.8551 176.446 26.2854 175.115 25.2427C173.783 24.2 172.861 22.8764 172.347 21.2724V21.2243C172.123 20.5828 171.995 19.925 171.963 19.2511H177.738C177.834 19.8288 178.107 20.3018 178.556 20.671C179.006 21.0399 179.535 21.2243 180.145 21.2243H197.23C197.808 21.2243 198.329 21.0399 198.794 20.671C199.259 20.3022 199.54 19.8288 199.637 19.2511C199.669 19.1228 199.685 18.9785 199.685 18.8181C199.685 18.1443 199.46 17.5746 199.011 17.1096C198.561 16.6445 198 16.3956 197.326 16.3636H180C177.562 16.3315 175.54 15.369 173.936 13.4756C173.198 12.6414 172.669 11.6949 172.348 10.6362H197.326C197.39 10.6362 197.423 10.6362 197.423 10.6362C199.861 10.7003 201.866 11.6468 203.439 13.4756C204.176 14.342 204.706 15.3048 205.026 16.3636C205.283 17.1657 205.411 17.9839 205.411 18.8181ZM172.347 5.72737C172.861 4.0589 173.832 2.68711 175.259 1.61234C176.687 0.537562 178.315 0 180.144 0H197.23C199.027 0 200.647 0.537213 202.09 1.61234C203.534 2.68711 204.513 4.0589 205.026 5.72737H172.347ZM169.368 0V5.72737C158.186 5.72737 147.004 5.72737 135.823 5.72737V0H169.368ZM155.315 10.6362V26.9998H149.539V10.6362H155.315ZM122.689 16.3636L133.614 26.9998H125.384L114.411 16.3636H105.845V26.9998H100.069V10.6362C111.132 10.6362 122.194 10.6362 133.256 10.6362C132.876 11.8644 132.193 12.9712 131.208 13.9567C129.604 15.5611 127.679 16.3632 125.432 16.3632L122.689 16.3636ZM100.069 5.72737V0H125.432C127.679 0 129.604 0.802159 131.208 2.40648C132.194 3.39236 132.877 4.4992 133.256 5.72737C122.194 5.72737 111.132 5.72737 100.069 5.72737Z" fill="#000D45"/>
<path d="M204.909 7.52342H74.9083L74.21 8.84049H204.909V7.52342Z" fill="#28859F"/>
<path d="M61.5522 0.00024487C63.8304 0.00024487 65.7631 0.802404 67.3514 2.40672C68.9397 4.01104 69.7338 5.93608 69.7338 8.1822C69.7338 10.4283 68.9397 12.3534 67.3514 13.9573C65.7631 15.5616 63.8301 16.3638 61.5522 16.3638H41.964V27H36.2366V0.00024487H61.5522ZM61.5522 10.6364C62.2257 10.6364 62.8034 10.3955 63.2848 9.91446C63.7663 9.43337 64.0068 8.85572 64.0068 8.18185C64.0068 7.50798 63.7659 6.93068 63.2848 6.44924C62.8034 5.96781 62.2261 5.72726 61.5522 5.72726H41.964V10.6361L61.5522 10.6364Z" fill="#28859F"/>
</svg>
