<svg width="20" height="20" viewBox="0 0 20 20" fill="none" xmlns="http://www.w3.org/2000/svg">
<path d="M19.7001 18.3044L14.9855 13.5861C17.5743 10.3002 17.3639 5.49763 14.3331 2.46446C11.0497 -0.821485 5.72481 -0.821485 2.46251 2.46446C-0.820837 5.72933 -0.820837 11.0585 2.46251 14.3444C5.49329 17.3776 10.292 17.5882 13.5754 14.9974L18.2899 19.7156C18.6688 20.0948 19.3002 20.0948 19.7001 19.7156C20.1 19.3365 20.1 18.7046 19.7001 18.3044ZM3.87266 12.9331C1.36806 10.4265 1.36806 6.36124 3.87266 3.87572C6.35622 1.36914 10.4183 1.36914 12.9229 3.87572C15.4275 6.38231 15.4275 10.4476 12.9229 12.9331C10.4183 15.4397 6.35622 15.4397 3.87266 12.9331Z" fill="#282828"/>
</svg>
