<svg width="15" height="15" viewBox="0 0 15 15" fill="none" xmlns="http://www.w3.org/2000/svg">
<path d="M14.7751 13.7283L11.2391 10.1896C13.1807 7.72512 13.0229 4.12322 10.7498 1.84834C8.28729 -0.616114 4.29361 -0.616114 1.84688 1.84834C-0.615628 4.297 -0.615628 8.29384 1.84688 10.7583C4.11997 13.0332 7.71902 13.1912 10.1815 11.248L13.7174 14.7867C14.0016 15.0711 14.4751 15.0711 14.7751 14.7867C15.075 14.5024 15.075 14.0284 14.7751 13.7283ZM2.9045 9.69984C1.02605 7.81991 1.02605 4.77093 2.9045 2.90679C4.76717 1.02686 7.81373 1.02686 9.69219 2.90679C11.5706 4.78673 11.5706 7.8357 9.69219 9.69984C7.81373 11.5798 4.76717 11.5798 2.9045 9.69984Z" fill="#888EAB"/>
</svg>
